<svg width="56" height="55" viewBox="0 0 56 55" fill="none" xmlns="http://www.w3.org/2000/svg">
<path d="M22.7521 25.8731C22.3206 25.4416 21.7353 25.1992 21.125 25.1992C20.5147 25.1992 19.9295 25.4416 19.4979 25.8731C19.0664 26.3047 18.824 26.8899 18.824 27.5002C18.824 28.1105 19.0664 28.6958 19.4979 29.1273L26.3729 36.0023C26.5871 36.2147 26.841 36.3827 27.1202 36.4968C27.3994 36.6108 27.6984 36.6686 28 36.6669C28.3137 36.6569 28.6221 36.5826 28.9059 36.4486C29.1897 36.3146 29.443 36.1237 29.65 35.8877L45.6917 17.5544C46.0621 17.0945 46.2407 16.5094 46.1902 15.9211C46.1398 15.3327 45.8642 14.7866 45.4209 14.3965C44.9776 14.0064 44.4008 13.8025 43.8109 13.8272C43.2209 13.852 42.6632 14.1035 42.2542 14.5294L28 31.0294L22.7521 25.8731Z" fill="#66CC99"/>
<path d="M48.625 25.2085C48.0172 25.2085 47.4343 25.4499 47.0046 25.8797C46.5748 26.3095 46.3334 26.8924 46.3334 27.5002C46.3334 32.3625 44.4018 37.0256 40.9636 40.4638C37.5255 43.902 32.8623 45.8335 28 45.8335C24.3794 45.8318 20.8403 44.7582 17.8291 42.7479C14.8178 40.7375 12.4692 37.8806 11.0795 34.5373C9.68969 31.1941 9.32097 27.5141 10.0198 23.9616C10.7186 20.409 12.4537 17.1429 15.0063 14.5752C16.7037 12.855 18.7272 11.4907 20.9583 10.562C23.1894 9.63338 25.5834 9.15906 28 9.16683C29.4654 9.176 30.9255 9.34506 32.3542 9.671C32.6532 9.76348 32.9679 9.79374 33.2791 9.75991C33.5902 9.72608 33.8911 9.62889 34.1632 9.47432C34.4353 9.31975 34.6729 9.11108 34.8613 8.86117C35.0497 8.61126 35.1849 8.32542 35.2586 8.02126C35.3323 7.71709 35.3429 7.40106 35.2898 7.09264C35.2367 6.78422 35.1209 6.48995 34.9497 6.22798C34.7785 5.966 34.5554 5.74187 34.2943 5.5694C34.0331 5.39693 33.7394 5.27977 33.4313 5.22516C31.651 4.80634 29.8289 4.59108 28 4.5835C23.4725 4.60702 19.0533 5.97115 15.3003 8.50374C11.5472 11.0363 8.62849 14.6239 6.91238 18.8137C5.19626 23.0035 4.75967 27.6077 5.65772 32.0454C6.55577 36.483 8.74821 40.5552 11.9584 43.7481C16.2133 48.0049 21.9813 50.4028 28 50.4168C34.0779 50.4168 39.9068 48.0024 44.2046 43.7047C48.5023 39.407 50.9167 33.578 50.9167 27.5002C50.9167 26.8924 50.6752 26.3095 50.2455 25.8797C49.8157 25.4499 49.2328 25.2085 48.625 25.2085Z" fill="#66CC99"/>
</svg>
