<svg width="121" height="32" viewBox="0 0 121 32" fill="none" xmlns="http://www.w3.org/2000/svg">
<path d="M69.2986 12.1846V19.5964H60.3364V12.1846C60.3356 12.1061 60.3193 12.0286 60.2885 11.9564C60.2577 11.8841 60.213 11.8187 60.1569 11.7638C60.1008 11.7088 60.0345 11.6655 59.9616 11.6362C59.8888 11.6069 59.8109 11.5923 59.7324 11.5931H58.0097C57.9312 11.5923 57.8533 11.6069 57.7804 11.6362C57.7076 11.6655 57.6412 11.7088 57.5852 11.7638C57.5291 11.8187 57.4844 11.8841 57.4536 11.9564C57.4228 12.0286 57.4065 12.1061 57.4057 12.1846V29.6359C57.4065 29.7144 57.4228 29.792 57.4536 29.8642C57.4844 29.9364 57.5291 30.0018 57.5852 30.0568C57.6412 30.1117 57.7076 30.155 57.7804 30.1843C57.8533 30.2136 57.9312 30.2283 58.0097 30.2274H59.7324C59.8109 30.2283 59.8888 30.2136 59.9616 30.1843C60.0345 30.155 60.1008 30.1117 60.1569 30.0568C60.213 30.0018 60.2577 29.9364 60.2885 29.8642C60.3193 29.792 60.3356 29.7144 60.3364 29.6359V22.4669H69.2986V29.6359C69.2994 29.7144 69.3157 29.792 69.3465 29.8642C69.3773 29.9364 69.422 30.0018 69.4781 30.0568C69.5342 30.1117 69.6005 30.155 69.6734 30.1843C69.7462 30.2136 69.8241 30.2283 69.9026 30.2274H71.6253C71.7038 30.2283 71.7817 30.2136 71.8545 30.1843C71.9274 30.155 71.9937 30.1117 72.0498 30.0568C72.1059 30.0018 72.1506 29.9364 72.1814 29.8642C72.2122 29.792 72.2285 29.7144 72.2293 29.6359V12.1846C72.2285 12.1061 72.2122 12.0286 72.1814 11.9564C72.1506 11.8841 72.1059 11.8187 72.0498 11.7638C71.9937 11.7088 71.9274 11.6655 71.8545 11.6362C71.7817 11.6069 71.7038 11.5923 71.6253 11.5931H69.9026C69.8241 11.5923 69.7462 11.6069 69.6734 11.6362C69.6005 11.6655 69.5342 11.7088 69.4781 11.7638C69.422 11.8187 69.3773 11.8841 69.3465 11.9564C69.3157 12.0286 69.2994 12.1061 69.2986 12.1846Z" fill="black"/>
<path d="M16.2931 11.5931L10.1806 19.5757C10.1137 19.6623 10.0278 19.7324 9.92959 19.7806C9.83137 19.8289 9.7234 19.8539 9.61397 19.8539C9.50454 19.8539 9.39656 19.8289 9.29834 19.7806C9.20011 19.7324 9.11425 19.6623 9.04734 19.5757L2.93068 11.5952H0.707764C0.523822 11.5935 0.346571 11.6641 0.21419 11.7918C0.0818095 11.9195 0.00489025 12.0942 0 12.278V29.6712C0.000541831 29.7439 0.0154289 29.8157 0.0438071 29.8826C0.0721853 29.9495 0.113496 30.0102 0.165369 30.0611C0.217243 30.112 0.278658 30.1522 0.346091 30.1793C0.413524 30.2064 0.485647 30.22 0.558324 30.2191H2.37028C2.44296 30.22 2.51508 30.2064 2.58252 30.1793C2.64995 30.1522 2.71136 30.112 2.76324 30.0611C2.81511 30.0102 2.85642 29.9495 2.8848 29.8826C2.91318 29.8157 2.92807 29.7439 2.92861 29.6712V16.3731L8.77129 23.9862L9.06187 24.3515C9.12919 24.4348 9.21426 24.5019 9.31086 24.548C9.40747 24.5941 9.51315 24.618 9.62019 24.618C9.72723 24.618 9.83292 24.5941 9.92952 24.548C10.0261 24.5019 10.1112 24.4348 10.1785 24.3515L10.4691 23.9862L16.2931 16.3793V29.6795C16.2936 29.7522 16.3085 29.824 16.3369 29.8909C16.3653 29.9578 16.4066 30.0185 16.4585 30.0694C16.5103 30.1203 16.5718 30.1605 16.6392 30.1876C16.7066 30.2147 16.7787 30.2283 16.8514 30.2274H18.6634C18.7361 30.2283 18.8082 30.2147 18.8756 30.1876C18.9431 30.1605 19.0045 30.1203 19.0563 30.0694C19.1082 30.0185 19.1495 29.9578 19.1779 29.8909C19.2063 29.824 19.2212 29.7522 19.2217 29.6795V12.278C19.2195 12.0923 19.1438 11.9151 19.0111 11.7851C18.8784 11.6552 18.6996 11.5831 18.5139 11.5848L16.2931 11.5931Z" fill="black"/>
<path d="M54.3276 11.5931H22.2479C22.1904 11.5926 22.1333 11.6033 22.08 11.6248C22.0266 11.6463 21.978 11.6781 21.937 11.7184C21.8959 11.7587 21.8632 11.8067 21.8407 11.8596C21.8182 11.9125 21.8063 11.9694 21.8058 12.0269V14.0319C21.8063 14.0894 21.8182 14.1462 21.8407 14.1992C21.8632 14.2521 21.8959 14.3001 21.937 14.3403C21.978 14.3806 22.0266 14.4124 22.08 14.4339C22.1333 14.4554 22.1904 14.4662 22.2479 14.4657H47.1545V30.2399H50.0831V14.4657H54.3276C54.3851 14.4662 54.4422 14.4554 54.4955 14.4339C54.5489 14.4124 54.5975 14.3806 54.6385 14.3403C54.6796 14.3001 54.7123 14.2521 54.7348 14.1992C54.7573 14.1462 54.7692 14.0894 54.7697 14.0319V12.0248C54.7681 11.909 54.7207 11.7986 54.6378 11.7177C54.555 11.6368 54.4434 11.592 54.3276 11.5931Z" fill="black"/>
<path d="M31.6979 22.4669H22.2603C22.1412 22.4681 22.0265 22.4219 21.9414 22.3387C21.8562 22.2555 21.8074 22.1419 21.8058 22.0228V20.0406C21.8074 19.9215 21.8562 19.8079 21.9414 19.7247C22.0265 19.6415 22.1412 19.5953 22.2603 19.5965H31.6979C31.7584 19.5963 31.8184 19.6082 31.8743 19.6313C31.9302 19.6545 31.981 19.6885 32.0237 19.7314L33.0034 20.7214C33.0446 20.7621 33.0772 20.8106 33.0995 20.8641C33.1219 20.9175 33.1333 20.9748 33.1333 21.0327C33.1333 21.0906 33.1219 21.148 33.0995 21.2014C33.0772 21.2549 33.0446 21.3033 33.0034 21.3441L32.0237 22.3341C31.9808 22.3766 31.93 22.4102 31.874 22.433C31.8181 22.4558 31.7583 22.4673 31.6979 22.4669Z" fill="black"/>
<path d="M44.0599 30.2274H22.2665C22.1474 30.2286 22.0327 30.1824 21.9476 30.0992C21.8624 30.016 21.8136 29.9024 21.812 29.7833V27.8032C21.8136 27.6841 21.8624 27.5705 21.9476 27.4873C22.0327 27.404 22.1474 27.3579 22.2665 27.359H44.0599C44.179 27.3579 44.2936 27.404 44.3788 27.4873C44.464 27.5705 44.5128 27.6841 44.5144 27.8032V29.7833C44.5128 29.9024 44.464 30.016 44.3788 30.0992C44.2936 30.1824 44.179 30.2286 44.0599 30.2274Z" fill="black"/>
<path d="M110.982 14.6047C114.585 14.6213 117.514 17.498 117.514 21.0389C117.514 24.5798 114.587 27.4503 110.982 27.4731H103.282V14.6068L110.982 14.6047ZM110.953 11.5557H100.729C100.656 11.5549 100.584 11.5684 100.516 11.5955C100.449 11.6226 100.388 11.6628 100.336 11.7137C100.284 11.7646 100.243 11.8253 100.214 11.8922C100.186 11.9591 100.171 12.031 100.17 12.1036V29.9617C100.171 30.0344 100.186 30.1062 100.214 30.1732C100.243 30.2401 100.284 30.3007 100.336 30.3516C100.388 30.4025 100.449 30.4427 100.516 30.4698C100.584 30.4969 100.656 30.5105 100.729 30.5097H110.953C116.295 30.5097 120.627 26.2672 120.627 21.0327C120.627 15.7981 116.295 11.5557 110.953 11.5557Z" fill="black"/>
<path d="M116.486 6.08662C116.254 5.84845 116.072 5.56649 115.95 5.25719C115.828 4.94788 115.769 4.61741 115.776 4.28504C115.769 3.95267 115.828 3.6222 115.95 3.31289C116.072 3.00359 116.254 2.72163 116.486 2.48346C116.707 2.24959 116.973 2.06328 117.269 1.93594C117.564 1.8086 117.882 1.74292 118.204 1.74292C118.525 1.74292 118.844 1.8086 119.139 1.93594C119.434 2.06328 119.701 2.24959 119.921 2.48346C120.152 2.72238 120.333 3.00456 120.454 3.31375C120.575 3.62295 120.634 3.95304 120.627 4.28504C120.634 4.61703 120.575 4.94713 120.454 5.25633C120.333 5.56552 120.152 5.8477 119.921 6.08662C119.701 6.32049 119.434 6.5068 119.139 6.63414C118.844 6.76148 118.525 6.82716 118.204 6.82716C117.882 6.82716 117.564 6.76148 117.269 6.63414C116.973 6.5068 116.707 6.32049 116.486 6.08662ZM116.694 2.68686C116.49 2.89914 116.33 3.1496 116.223 3.42385C116.116 3.69811 116.065 3.99077 116.071 4.28504C116.065 4.57931 116.116 4.87197 116.223 5.14622C116.33 5.42048 116.49 5.67094 116.694 5.88322C116.888 6.09257 117.124 6.25957 117.385 6.37377C117.647 6.48797 117.93 6.54692 118.215 6.54692C118.501 6.54692 118.783 6.48797 119.045 6.37377C119.307 6.25957 119.542 6.09257 119.737 5.88322C119.941 5.67094 120.1 5.42048 120.207 5.14622C120.314 4.87197 120.366 4.57931 120.359 4.28504C120.366 3.99077 120.314 3.69811 120.207 3.42385C120.1 3.1496 119.941 2.89914 119.737 2.68686C119.542 2.47751 119.307 2.31051 119.045 2.19631C118.783 2.08211 118.501 2.02316 118.215 2.02316C117.93 2.02316 117.647 2.08211 117.385 2.19631C117.124 2.31051 116.888 2.47751 116.694 2.68686ZM117.572 5.87076H117.327V2.60592H118.099C118.824 2.60592 119.187 2.9131 119.187 3.52746C119.189 3.74038 119.115 3.94718 118.979 4.11069C118.834 4.28456 118.634 4.40389 118.412 4.44901L119.49 5.87284H119.178L118.141 4.48429H117.564L117.572 5.87076ZM118.093 2.81555H117.572V4.26844H118.172C118.372 4.26867 118.566 4.19475 118.715 4.06088C118.794 3.99584 118.857 3.9139 118.899 3.82117C118.942 3.72844 118.963 3.62733 118.96 3.52539C118.964 3.42571 118.944 3.32665 118.902 3.23593C118.861 3.1452 118.799 3.06526 118.722 3.00235C118.538 2.86748 118.312 2.80139 118.084 2.81555H118.093Z" fill="black"/>
<path d="M93.1695 17.0643C90.3011 12.415 84.1263 10.9248 79.3816 13.7434C78.2591 14.3956 77.2785 15.2659 76.4976 16.303C75.7168 17.3402 75.1514 18.5232 74.835 19.7822C74.5185 21.0413 74.4573 22.351 74.655 23.6341C74.8527 24.9172 75.3053 26.1477 75.986 27.2532C78.8544 31.9024 85.0292 33.3927 89.7739 30.5741C90.8965 29.9219 91.8771 29.0516 92.6579 28.0144C93.4388 26.9773 94.0041 25.7943 94.3206 24.5352C94.637 23.2761 94.6982 21.9664 94.5005 20.6833C94.3029 19.4002 93.8503 18.1697 93.1695 17.0643ZM87.8354 27.3736C84.1741 28.2494 80.4692 26.0452 79.5747 22.4586C78.6801 18.8721 80.93 15.2399 84.5913 14.364C88.2525 13.4881 91.9574 15.6923 92.852 19.2789C93.7465 22.8655 91.4966 26.4977 87.8354 27.3736Z" fill="#EE214F"/>
<path d="M95.683 17.5561C94.9296 12.1742 89.8715 8.4112 84.3692 9.15425C78.8669 9.8973 75.0292 14.8599 75.793 20.2439C76.5568 25.6279 81.617 29.3888 87.111 28.6479C92.605 27.9069 96.4448 22.9401 95.683 17.5561ZM87.8312 27.3735C84.17 28.2493 80.4651 26.0451 79.5705 22.4586C78.676 18.872 80.9259 15.2398 84.5871 14.3639C88.2484 13.488 91.9533 15.6922 92.8478 19.2788C93.7424 22.8654 91.4967 26.4976 87.8354 27.3735H87.8312Z" fill="#782B90"/>
<path d="M88.9645 11.4478C83.4331 11.0722 78.6365 15.161 78.2525 20.5803C77.8686 25.9995 82.0425 30.7007 87.5739 31.0764C93.1052 31.452 97.9018 27.3632 98.2858 21.9439C98.6698 16.5246 94.4958 11.8318 88.9645 11.4478ZM87.8354 27.3653C84.1741 28.2411 80.4692 26.0369 79.5747 22.4503C78.6801 18.8638 80.93 15.2316 84.5913 14.3557C88.2526 13.4798 91.9574 15.684 92.852 19.2706C93.7466 22.8572 91.4967 26.4977 87.8354 27.3736V27.3653Z" fill="#76C79C"/>
<path d="M95.9674 18.5337C94.6515 13.2556 89.2156 10.0239 83.8275 11.3108C78.4393 12.5976 75.1351 17.9256 76.4572 23.2058C77.7793 28.486 83.209 31.7155 88.5971 30.4287C93.9852 29.1419 97.2854 23.8118 95.9674 18.5337ZM87.8354 27.3735C84.1741 28.2494 80.4692 26.0451 79.5747 22.4586C78.6801 18.872 80.93 15.2398 84.5913 14.3639C88.2526 13.488 91.9574 15.6923 92.852 19.2788C93.7466 22.8654 91.4967 26.4976 87.8354 27.3735Z" fill="#2E3192"/>
<path d="M1.2348 5.50548V2.93363C1.35277 2.72128 1.5258 2.53252 1.74602 2.38309C1.97411 2.22579 2.19433 2.14714 2.42241 2.14714C3.05161 2.14714 3.36621 2.51679 3.36621 3.26396V5.50548H3.93248V3.3898C3.93248 3.31902 3.92462 3.17745 3.91675 2.96509C4.14484 2.52466 4.64033 2.14714 5.12009 2.14714C5.74929 2.14714 6.06389 2.51679 6.06389 3.26396V5.50548H6.63017V3.13812C6.63017 2.155 6.13468 1.61232 5.28526 1.61232C4.6246 1.61232 4.10551 1.91905 3.82237 2.35949C3.66508 1.89546 3.22464 1.61232 2.6033 1.61232C2.00557 1.61232 1.5494 1.83254 1.2348 2.27298V1.7067H0.668522V5.50548H1.2348Z" fill="black"/>
<path d="M9.17799 5.08864C8.58811 5.08864 8.13981 4.82123 8.13981 4.31C8.13981 3.8381 8.57238 3.5471 9.2645 3.5471C9.69707 3.5471 10.1139 3.67294 10.4993 3.92462V4.45157C10.224 4.79763 9.72067 5.08864 9.17799 5.08864ZM9.02069 5.59986C9.65775 5.59986 10.169 5.37964 10.5544 4.93134C10.6173 5.34031 10.9004 5.53694 11.2701 5.53694C11.4431 5.53694 11.5689 5.50548 11.6476 5.45042V5.00999C11.5847 5.04145 11.5139 5.05718 11.4274 5.05718C11.2071 5.05718 11.0656 4.87628 11.0656 4.58528V3.02015C11.0656 2.09995 10.3813 1.61232 9.36675 1.61232C8.82406 1.61232 8.37576 1.73029 8.00611 1.95838V2.50893C8.39149 2.24938 8.80047 2.12354 9.24877 2.12354C10.0825 2.12354 10.4993 2.43814 10.4993 3.0752V3.45272C10.0825 3.20891 9.62629 3.08307 9.1308 3.08307C8.68249 3.08307 8.31284 3.19318 8.01397 3.42126C7.72297 3.64935 7.57353 3.95608 7.57353 4.34146C7.57353 4.73471 7.7151 5.04145 7.99038 5.26953C8.27352 5.48975 8.61957 5.59986 9.02069 5.59986Z" fill="black"/>
<path d="M13.1321 5.50548V3.10666C13.2894 2.73701 13.6669 2.38309 14.1703 2.25725C14.3118 2.21006 14.4691 2.18646 14.6422 2.18646V1.61232C14.0208 1.61232 13.4152 1.93478 13.1321 2.43028V1.7067H12.5658V5.50548H13.1321Z" fill="black"/>
<path d="M15.4691 0V5.50548H16.0354V3.63362L18.0881 5.50548H18.8982L16.6095 3.42126L18.6151 1.7067H17.8443L16.0354 3.27183V0H15.4691Z" fill="black"/>
<path d="M21.3259 5.59986C21.9001 5.59986 22.3405 5.48188 22.6551 5.23807V4.73471C22.2854 4.97066 21.8765 5.08864 21.436 5.08864C20.5237 5.08864 19.8788 4.56168 19.8158 3.74373H22.9382V3.58643C22.9382 2.72914 22.4349 1.61232 21.1608 1.61232C20.5945 1.61232 20.1304 1.80108 19.7687 2.18646C19.4147 2.56398 19.2338 3.03588 19.2338 3.61002C19.2338 4.19203 19.4305 4.67179 19.8316 5.04145C20.2327 5.4111 20.736 5.59986 21.3259 5.59986ZM19.8237 3.27969C19.8473 2.96509 19.981 2.69768 20.2091 2.4696C20.445 2.24152 20.7518 2.12354 21.1372 2.12354C21.5383 2.12354 21.8371 2.24152 22.0338 2.48533C22.2383 2.72128 22.3484 2.98869 22.3641 3.27969H19.8237Z" fill="black"/>
<path d="M25.5124 5.59986C25.8663 5.59986 26.1258 5.5448 26.291 5.42683V4.90774C26.1101 5.00999 25.9056 5.06504 25.6697 5.06504C25.4337 5.06504 25.2607 5.00212 25.1584 4.88415C25.0562 4.76617 25.009 4.55382 25.009 4.25495V2.20219H26.3382V1.7067H25.009V0.534818H24.4427V1.7067H23.5461V2.20219H24.4427V4.42798C24.4427 5.14369 24.7888 5.59986 25.5124 5.59986Z" fill="black"/>
<path d="M28.0346 5.50548V1.7067H27.4683V5.50548H28.0346ZM27.4683 0.684253C27.6256 0.833687 27.8773 0.833687 28.0346 0.684253C28.1919 0.526953 28.1919 0.275274 28.0346 0.117974C27.8773 -0.0393248 27.6256 -0.0393248 27.4683 0.117974C27.3188 0.275274 27.3188 0.526953 27.4683 0.684253Z" fill="black"/>
<path d="M30.0372 2.9415C30.163 2.72914 30.3518 2.54825 30.5956 2.39095C30.8473 2.22579 31.0989 2.14714 31.3585 2.14714C31.8225 2.14714 32.436 2.32017 32.436 3.31902V5.50548H33.0023V3.19318C33.0023 2.19433 32.4989 1.61232 31.5551 1.61232C30.9416 1.61232 30.4383 1.8404 30.0372 2.28871V1.7067H29.4709V5.50548H30.0372V2.9415Z" fill="black"/>
<path d="M37.378 5.26166C37.378 6.16614 36.7409 6.59871 35.8286 6.59871C35.3173 6.59871 34.8454 6.47287 34.4129 6.21333V6.76387C34.814 6.99196 35.3095 7.10993 35.8836 7.10993C36.4735 7.10993 36.969 6.95263 37.3544 6.63017C37.7476 6.31557 37.9442 5.8594 37.9442 5.26166V1.7067H37.378V2.28871C37.0476 1.8404 36.56 1.61232 35.9072 1.61232C35.3488 1.61232 34.8848 1.80108 34.5308 2.18646C34.1769 2.57185 33.996 3.03588 33.996 3.57856C33.996 4.12124 34.1769 4.58528 34.5308 4.97066C34.8848 5.34818 35.3488 5.53694 35.9072 5.53694C36.5521 5.53694 37.0398 5.30885 37.378 4.86055V5.26166ZM37.378 4.19203C37.1656 4.68752 36.6308 5.02572 36.0409 5.02572C35.6241 5.02572 35.2701 4.89201 34.9949 4.61674C34.7196 4.34146 34.578 3.9954 34.578 3.57856C34.578 3.16172 34.7196 2.81566 34.9949 2.54039C35.2701 2.26511 35.6241 2.12354 36.0409 2.12354C36.6308 2.12354 37.1656 2.46174 37.378 2.95723V4.19203Z" fill="black"/>
<path d="M42.635 5.59986C43.1069 5.59986 43.4923 5.49761 43.7912 5.30099C44.0979 5.10437 44.2473 4.82909 44.2473 4.4909C44.2473 3.8381 43.744 3.56283 42.871 3.35048C42.808 3.34261 42.5642 3.28756 42.4934 3.26396L42.3204 3.21677C42.171 3.17745 42.1395 3.14599 42.0137 3.10666C41.8328 3.02015 41.7227 2.86285 41.7227 2.68195C41.7227 2.34376 42.0451 2.12354 42.6979 2.12354C43.1698 2.12354 43.626 2.24938 44.0586 2.50893V1.95051C43.7046 1.72243 43.2485 1.61232 42.6743 1.61232C41.7069 1.61232 41.1485 2.01343 41.1485 2.66622C41.1485 3.31902 41.5732 3.58643 42.4777 3.81451C42.5328 3.82237 42.6193 3.84597 42.7373 3.87743C42.8631 3.90102 42.9496 3.92462 42.9968 3.94035C43.0912 3.96394 43.3271 4.02686 43.3979 4.08192C43.5552 4.1763 43.6653 4.27854 43.6653 4.48303C43.6653 4.86055 43.2721 5.08864 42.6193 5.08864C42.0373 5.08864 41.5182 4.93134 41.062 4.6246V5.20661C41.3766 5.41896 42.0058 5.59986 42.635 5.59986Z" fill="black"/>
<path d="M45.6456 2.20219C45.2603 2.58757 45.0715 3.05947 45.0715 3.61002C45.0715 4.16057 45.2603 4.63247 45.6456 5.01785C46.031 5.40323 46.5186 5.59986 47.1242 5.59986C47.7299 5.59986 48.2175 5.40323 48.6029 5.01785C48.9882 4.63247 49.177 4.16057 49.177 3.61002C49.177 3.05947 48.9882 2.58757 48.6029 2.20219C48.2175 1.80894 47.7299 1.61232 47.1242 1.61232C46.5186 1.61232 46.031 1.80894 45.6456 2.20219ZM48.595 3.61002C48.595 4.02686 48.4534 4.38079 48.1782 4.66393C47.9029 4.94707 47.549 5.08864 47.1242 5.08864C46.6995 5.08864 46.3456 4.94707 46.0703 4.66393C45.7951 4.38079 45.6535 4.02686 45.6535 3.61002C45.6535 3.18531 45.7951 2.83139 46.0703 2.54825C46.3456 2.26511 46.6995 2.12354 47.1242 2.12354C47.549 2.12354 47.9029 2.26511 48.1782 2.54825C48.4534 2.83139 48.595 3.18531 48.595 3.61002Z" fill="black"/>
<path d="M51.1047 5.59986C51.3485 5.59986 51.5294 5.56053 51.6631 5.48975V4.98639C51.5451 5.05718 51.4193 5.08864 51.2934 5.08864C50.9631 5.08864 50.7979 4.89988 50.7979 4.53022V0H50.2316V4.66393C50.2316 5.33245 50.6092 5.59986 51.1047 5.59986Z" fill="black"/>
<path d="M55.4303 4.27068C55.3045 4.48303 55.1157 4.66393 54.8641 4.82909C54.6202 4.98639 54.3686 5.06504 54.109 5.06504C53.645 5.06504 53.0315 4.89201 53.0315 3.89316V1.7067H52.4652V4.019C52.4652 5.01785 52.9686 5.59986 53.9124 5.59986C54.5259 5.59986 55.0292 5.37177 55.4303 4.92347V5.50548H55.9966V1.7067H55.4303V4.27068Z" fill="black"/>
<path d="M58.8463 5.59986C59.2002 5.59986 59.4598 5.5448 59.6249 5.42683V4.90774C59.444 5.00999 59.2396 5.06504 59.0036 5.06504C58.7677 5.06504 58.5946 5.00212 58.4924 4.88415C58.3901 4.76617 58.3429 4.55382 58.3429 4.25495V2.20219H59.6721V1.7067H58.3429V0.534818H57.7767V1.7067H56.8801V2.20219H57.7767V4.42798C57.7767 5.14369 58.1227 5.59986 58.8463 5.59986Z" fill="black"/>
<path d="M61.3685 5.50548V1.7067H60.8022V5.50548H61.3685ZM60.8022 0.684253C60.9595 0.833687 61.2112 0.833687 61.3685 0.684253C61.5258 0.526953 61.5258 0.275274 61.3685 0.117974C61.2112 -0.0393248 60.9595 -0.0393248 60.8022 0.117974C60.6528 0.275274 60.6528 0.526953 60.8022 0.684253Z" fill="black"/>
<path d="M63.1037 2.20219C62.7183 2.58757 62.5296 3.05947 62.5296 3.61002C62.5296 4.16057 62.7183 4.63247 63.1037 5.01785C63.4891 5.40323 63.9767 5.59986 64.5823 5.59986C65.1879 5.59986 65.6756 5.40323 66.0609 5.01785C66.4463 4.63247 66.6351 4.16057 66.6351 3.61002C66.6351 3.05947 66.4463 2.58757 66.0609 2.20219C65.6756 1.80894 65.1879 1.61232 64.5823 1.61232C63.9767 1.61232 63.4891 1.80894 63.1037 2.20219ZM66.0531 3.61002C66.0531 4.02686 65.9115 4.38079 65.6362 4.66393C65.361 4.94707 65.007 5.08864 64.5823 5.08864C64.1576 5.08864 63.8037 4.94707 63.5284 4.66393C63.2531 4.38079 63.1116 4.02686 63.1116 3.61002C63.1116 3.18531 63.2531 2.83139 63.5284 2.54825C63.8037 2.26511 64.1576 2.12354 64.5823 2.12354C65.007 2.12354 65.361 2.26511 65.6362 2.54825C65.9115 2.83139 66.0531 3.18531 66.0531 3.61002Z" fill="black"/>
<path d="M68.256 2.9415C68.3818 2.72914 68.5706 2.54825 68.8144 2.39095C69.0661 2.22579 69.3178 2.14714 69.5773 2.14714C70.0414 2.14714 70.6548 2.32017 70.6548 3.31902V5.50548H71.2211V3.19318C71.2211 2.19433 70.7177 1.61232 69.7739 1.61232C69.1605 1.61232 68.6571 1.8404 68.256 2.28871V1.7067H67.6897V5.50548H68.256V2.9415Z" fill="black"/>
<path d="M73.78 5.59986C74.2519 5.59986 74.6373 5.49761 74.9361 5.30099C75.2429 5.10437 75.3923 4.82909 75.3923 4.4909C75.3923 3.8381 74.8889 3.56283 74.0159 3.35048C73.953 3.34261 73.7092 3.28756 73.6384 3.26396L73.4654 3.21677C73.3159 3.17745 73.2845 3.14599 73.1586 3.10666C72.9777 3.02015 72.8676 2.86285 72.8676 2.68195C72.8676 2.34376 73.1901 2.12354 73.8429 2.12354C74.3148 2.12354 74.771 2.24938 75.2035 2.50893V1.95051C74.8496 1.72243 74.3934 1.61232 73.8193 1.61232C72.8519 1.61232 72.2935 2.01343 72.2935 2.66622C72.2935 3.31902 72.7182 3.58643 73.6227 3.81451C73.6777 3.82237 73.7642 3.84597 73.8822 3.87743C74.0081 3.90102 74.0946 3.92462 74.1418 3.94035C74.2361 3.96394 74.4721 4.02686 74.5429 4.08192C74.7002 4.1763 74.8103 4.27854 74.8103 4.48303C74.8103 4.86055 74.417 5.08864 73.7642 5.08864C73.1822 5.08864 72.6632 4.93134 72.207 4.6246V5.20661C72.5216 5.41896 73.1508 5.59986 73.78 5.59986Z" fill="black"/>
</svg>
