<svg width="236" height="62" viewBox="0 0 236 62" fill="none" xmlns="http://www.w3.org/2000/svg">
<path d="M3.69 7.38C5.72793 7.38 7.38 5.72793 7.38 3.69C7.38 1.65207 5.72793 0 3.69 0C1.65207 0 0 1.65207 0 3.69C0 5.72793 1.65207 7.38 3.69 7.38Z" fill="black"/>
<path d="M60.79 7.38C62.8279 7.38 64.48 5.72793 64.48 3.69C64.48 1.65207 62.8279 0 60.79 0C58.7521 0 57.1 1.65207 57.1 3.69C57.1 5.72793 58.7521 7.38 60.79 7.38Z" fill="black"/>
<path d="M117.89 7.38C119.928 7.38 121.58 5.72793 121.58 3.69C121.58 1.65207 119.928 0 117.89 0C115.852 0 114.2 1.65207 114.2 3.69C114.2 5.72793 115.852 7.38 117.89 7.38Z" fill="black"/>
<path d="M174.99 7.38C177.028 7.38 178.68 5.72793 178.68 3.69C178.68 1.65207 177.028 0 174.99 0C172.952 0 171.3 1.65207 171.3 3.69C171.3 5.72793 172.952 7.38 174.99 7.38Z" fill="black"/>
<path d="M232.09 7.38C234.128 7.38 235.78 5.72793 235.78 3.69C235.78 1.65207 234.128 0 232.09 0C230.052 0 228.4 1.65207 228.4 3.69C228.4 5.72793 230.052 7.38 232.09 7.38Z" fill="black"/>
<path d="M3.69 61.3101C5.72793 61.3101 7.38 59.658 7.38 57.6201C7.38 55.5821 5.72793 53.9301 3.69 53.9301C1.65207 53.9301 0 55.5821 0 57.6201C0 59.658 1.65207 61.3101 3.69 61.3101Z" fill="black"/>
<path d="M60.79 61.3101C62.8279 61.3101 64.48 59.658 64.48 57.6201C64.48 55.5821 62.8279 53.9301 60.79 53.9301C58.7521 53.9301 57.1 55.5821 57.1 57.6201C57.1 59.658 58.7521 61.3101 60.79 61.3101Z" fill="black"/>
<path d="M117.89 61.3101C119.928 61.3101 121.58 59.658 121.58 57.6201C121.58 55.5821 119.928 53.9301 117.89 53.9301C115.852 53.9301 114.2 55.5821 114.2 57.6201C114.2 59.658 115.852 61.3101 117.89 61.3101Z" fill="black"/>
<path d="M174.99 61.3101C177.028 61.3101 178.68 59.658 178.68 57.6201C178.68 55.5821 177.028 53.9301 174.99 53.9301C172.952 53.9301 171.3 55.5821 171.3 57.6201C171.3 59.658 172.952 61.3101 174.99 61.3101Z" fill="black"/>
<path d="M232.09 61.3101C234.128 61.3101 235.78 59.658 235.78 57.6201C235.78 55.5821 234.128 53.9301 232.09 53.9301C230.052 53.9301 228.4 55.5821 228.4 57.6201C228.4 59.658 230.052 61.3101 232.09 61.3101Z" fill="black"/>
</svg>
