<svg width="42" height="55" viewBox="0 0 42 55" fill="none" xmlns="http://www.w3.org/2000/svg">
<path d="M38.6702 52.8331V2.40585C38.6704 2.31266 38.6522 2.22036 38.6166 2.13422C38.5811 2.04808 38.5289 1.9698 38.4631 1.90385C38.3972 1.83789 38.319 1.78557 38.233 1.74987C38.1469 1.71418 38.0546 1.6958 37.9614 1.6958H2.2559C2.16271 1.6958 2.07044 1.71418 1.98437 1.74987C1.89829 1.78557 1.8201 1.83789 1.75427 1.90385C1.68843 1.9698 1.63625 2.04808 1.60071 2.13422C1.56516 2.22036 1.54695 2.31266 1.54712 2.40585V52.8331C1.54695 52.9263 1.56516 53.0186 1.60071 53.1047C1.63625 53.1909 1.68843 53.2691 1.75427 53.3351C1.8201 53.4011 1.89829 53.4534 1.98437 53.4891C2.07044 53.5248 2.16271 53.5431 2.2559 53.5431H37.9614C38.0546 53.5431 38.1469 53.5248 38.233 53.4891C38.319 53.4534 38.3972 53.4011 38.4631 53.3351C38.5289 53.2691 38.5811 53.1909 38.6166 53.1047C38.6522 53.0186 38.6704 52.9263 38.6702 52.8331ZM37.2527 52.1243H2.96467V3.11335H37.2527V52.1243Z" fill="white"/>
<path d="M19.8355 29.1778C22.4527 29.1747 24.9618 28.1339 26.8127 26.2835C28.6636 24.4331 29.7051 21.9242 29.7088 19.307C29.7088 19.119 29.6341 18.9387 29.5012 18.8058C29.3683 18.6729 29.188 18.5982 29 18.5982H20.5442V10.1386C20.5442 10.0455 20.5259 9.95337 20.4903 9.86737C20.4547 9.78138 20.4025 9.70325 20.3366 9.63743C20.2708 9.57161 20.1927 9.51941 20.1067 9.48379C20.0207 9.44817 19.9285 9.42983 19.8355 9.42983C18.5294 9.41502 17.2333 9.65948 16.0224 10.149C14.8114 10.6386 13.7096 11.3636 12.7808 12.2819C11.852 13.2003 11.1146 14.2938 10.6113 15.4991C10.108 16.7044 9.84888 17.9976 9.84888 19.3038C9.84888 20.61 10.108 21.9032 10.6113 23.1085C11.1146 24.3138 11.852 25.4073 12.7808 26.3257C13.7096 27.244 14.8114 27.969 16.0224 28.4586C17.2333 28.9481 18.5294 29.1926 19.8355 29.1778ZM19.1254 10.8779V19.307C19.1254 19.4002 19.1438 19.4926 19.1795 19.5787C19.2152 19.6648 19.2675 19.7431 19.3334 19.8091C19.3993 19.875 19.4776 19.9273 19.5637 19.963C19.6499 19.9987 19.7422 20.017 19.8355 20.017H28.262C28.1268 21.6232 27.5353 23.1573 26.5572 24.4385C25.579 25.7198 24.2551 26.6947 22.7413 27.2485C21.2276 27.8024 19.5871 27.912 18.0131 27.5645C16.4391 27.217 14.9972 26.4268 13.8573 25.2871C12.7175 24.1474 11.9271 22.7056 11.5794 21.1317C11.2317 19.5578 11.3411 17.9172 11.8947 16.4034C12.4483 14.8895 13.4231 13.5655 14.7041 12.5872C15.9852 11.6089 17.5192 11.0172 19.1254 10.8817V10.8779Z" fill="white"/>
<path d="M22.9451 16.8798H32.1097C32.2028 16.8799 32.2951 16.8617 32.3813 16.8262C32.4674 16.7906 32.5457 16.7384 32.6117 16.6726C32.6776 16.6068 32.7299 16.5286 32.7656 16.4425C32.8013 16.3564 32.8197 16.2642 32.8197 16.171C32.8167 13.553 31.7753 11.0431 29.9242 9.19193C28.073 7.34074 25.5631 6.29941 22.9451 6.29639C22.7571 6.29639 22.5768 6.37106 22.4439 6.50398C22.311 6.6369 22.2363 6.81718 22.2363 7.00516V16.171C22.2363 16.359 22.311 16.5392 22.4439 16.6722C22.5768 16.8051 22.7571 16.8798 22.9451 16.8798ZM23.6539 7.74823C25.6434 7.91755 27.5091 8.78431 28.9217 10.1955C30.3343 11.6067 31.2029 13.4716 31.3742 15.4609H23.6539V7.74823Z" fill="white"/>
<path d="M10.6697 36.6978H29.0001C29.1881 36.6978 29.3683 36.6231 29.5013 36.4902C29.6342 36.3573 29.7089 36.177 29.7089 35.989C29.7089 35.8011 29.6342 35.6208 29.5013 35.4879C29.3683 35.3549 29.1881 35.2803 29.0001 35.2803H10.6697C10.4817 35.2803 10.3015 35.3549 10.1685 35.4879C10.0356 35.6208 9.96094 35.8011 9.96094 35.989C9.96094 36.177 10.0356 36.3573 10.1685 36.4902C10.3015 36.6231 10.4817 36.6978 10.6697 36.6978Z" fill="white"/>
<path d="M29.0001 39.8135H26.5016C26.3186 39.8212 26.1457 39.8993 26.019 40.0315C25.8923 40.1637 25.8215 40.3398 25.8215 40.5229C25.8215 40.706 25.8923 40.882 26.019 41.0142C26.1457 41.1464 26.3186 41.2246 26.5016 41.2323H29.0001C29.183 41.2246 29.3559 41.1464 29.4826 41.0142C29.6093 40.882 29.6801 40.706 29.6801 40.5229C29.6801 40.3398 29.6093 40.1637 29.4826 40.0315C29.3559 39.8993 29.183 39.8212 29.0001 39.8135Z" fill="white"/>
<path d="M10.6698 41.2323H21.4513C21.6342 41.2246 21.8071 41.1464 21.9339 41.0142C22.0606 40.882 22.1313 40.706 22.1313 40.5229C22.1313 40.3398 22.0606 40.1637 21.9339 40.0315C21.8071 39.8993 21.6342 39.8212 21.4513 39.8135H10.6698C10.4868 39.8212 10.3139 39.8993 10.1872 40.0315C10.0605 40.1637 9.98975 40.3398 9.98975 40.5229C9.98975 40.706 10.0605 40.882 10.1872 41.0142C10.3139 41.1464 10.4868 41.2246 10.6698 41.2323Z" fill="white"/>
<path d="M29.0001 44.3481H19.8355C19.6475 44.3481 19.4672 44.4228 19.3343 44.5557C19.2014 44.6887 19.1267 44.8689 19.1267 45.0569C19.1267 45.2449 19.2014 45.4252 19.3343 45.5581C19.4672 45.691 19.6475 45.7657 19.8355 45.7657H29.0001C29.188 45.7657 29.3683 45.691 29.5012 45.5581C29.6342 45.4252 29.7088 45.2449 29.7088 45.0569C29.7088 44.8689 29.6342 44.6887 29.5012 44.5557C29.3683 44.4228 29.188 44.3481 29.0001 44.3481Z" fill="white"/>
<path d="M10.6697 45.7657H14.7179C14.9058 45.7657 15.0861 45.691 15.219 45.5581C15.352 45.4252 15.4266 45.2449 15.4266 45.0569C15.4266 44.8689 15.352 44.6887 15.219 44.5557C15.0861 44.4228 14.9058 44.3481 14.7179 44.3481H10.6697C10.4817 44.3481 10.3015 44.4228 10.1685 44.5557C10.0356 44.6887 9.96094 44.8689 9.96094 45.0569C9.96094 45.2449 10.0356 45.4252 10.1685 45.5581C10.3015 45.691 10.4817 45.7657 10.6697 45.7657Z" fill="white"/>
</svg>
