<svg width="41" height="54" viewBox="0 0 41 54" fill="none" xmlns="http://www.w3.org/2000/svg">
<path d="M0 53.2812H40.3906V9.10938L31.2813 0H0V53.2812ZM31.7969 2.92188L37.4688 8.59375H31.7969V2.92188ZM1.71875 1.71875H30.0781V10.3125H38.6719V51.5625H1.71875V1.71875Z" fill="white"/>
<path d="M35.2344 17.1875H5.15625V18.9062H35.2344V17.1875Z" fill="white"/>
<path d="M35.2344 21.4844H5.15625V23.2031H35.2344V21.4844Z" fill="white"/>
<path d="M35.2344 25.7812H26.6406V27.5H35.2344V25.7812Z" fill="white"/>
<path d="M26.6406 8.59375H13.75V10.3125H26.6406V8.59375Z" fill="white"/>
<path d="M27.0703 32.2266C24.1484 32.2266 21.6563 33.9453 20.4531 36.4375H9.58203L6.53125 38.8867L9.45313 42.668H12.375L13.1055 41.9375L13.8359 42.668H16.7148L17.4453 41.9375L18.1758 42.668H20.5391C21.6992 45.1602 24.2344 46.8789 27.1563 46.8789C31.1953 46.8789 34.4609 43.6133 34.4609 39.5742C34.4609 35.5352 31.1094 32.2266 27.0703 32.2266ZM18.8203 40.9492L17.4023 39.5313L15.9844 40.9492H14.5664L13.1484 39.5313L11.7305 40.9492H10.3125L8.9375 39.1445L10.1836 38.1563H19.8945C19.8086 38.5859 19.7656 39.0586 19.7656 39.5313C19.7656 40.0039 19.8086 40.4766 19.8945 40.9062H18.8203V40.9492ZM27.0703 45.1172C23.9766 45.1172 21.4844 42.625 21.4844 39.5313C21.4844 36.4375 23.9766 33.9453 27.0703 33.9453C30.1641 33.9453 32.6563 36.4375 32.6563 39.5313C32.6563 42.625 30.1641 45.1172 27.0703 45.1172Z" fill="white"/>
<path d="M29.3047 40.8203C30.0166 40.8203 30.5937 40.2432 30.5937 39.5312C30.5937 38.8193 30.0166 38.2422 29.3047 38.2422C28.5928 38.2422 28.0156 38.8193 28.0156 39.5312C28.0156 40.2432 28.5928 40.8203 29.3047 40.8203Z" fill="white"/>
</svg>
