<svg width="37" height="52" viewBox="0 0 37 52" fill="none" xmlns="http://www.w3.org/2000/svg">
<path d="M36.0534 8.01663H31.6985V5.54675C31.6985 5.04415 31.2911 4.63679 30.7885 4.63679H24.2047C23.6431 1.97731 21.2766 0 18.4818 0C15.6869 0 13.3205 1.97731 12.7588 4.63676H6.17502C5.67242 4.63676 5.26503 5.04412 5.26503 5.54672V8.01661H0.909991C0.407395 8.01661 0 8.424 0 8.9266V51.09C0 51.5926 0.407395 52 0.909991 52H36.0534C36.556 52 36.9634 51.5926 36.9634 51.09V8.92662C36.9634 8.42403 36.556 8.01663 36.0534 8.01663ZM7.08504 6.45674H13.5519C14.0332 6.45674 14.4311 6.0821 14.4603 5.60184C14.5887 3.48119 16.3551 1.82001 18.4818 1.82001C20.6084 1.82001 22.3748 3.48119 22.5033 5.60184C22.5325 6.0821 22.9304 6.45674 23.4116 6.45674H29.8785V8.01663V9.83662V12.0033H7.08504V9.83662V8.01663V6.45674ZM35.1434 50.18H1.82004V9.83662H5.26503V12.9133C5.26503 13.416 5.67242 13.8233 6.17502 13.8233H30.7885C31.2911 13.8233 31.6985 13.4159 31.6985 12.9133V9.83662H35.1434V50.18Z" fill="white"/>
<path d="M11.4582 16.919L7.53882 20.8385L5.78623 19.0859C5.41415 18.714 4.81102 18.714 4.43891 19.0859C4.06691 19.4579 4.06691 20.0611 4.43891 20.4332L6.86514 22.8594C7.05118 23.0454 7.29495 23.1384 7.53882 23.1384C7.78268 23.1384 8.02645 23.0454 8.2125 22.8594L12.8055 18.2664C13.1775 17.8943 13.1775 17.2912 12.8055 16.919C12.4335 16.5472 11.8303 16.5472 11.4582 16.919Z" fill="white"/>
<path d="M16.3508 18.9365C15.8246 18.9365 15.3982 19.363 15.3982 19.8891C15.3982 20.4153 15.8247 20.8418 16.3508 20.8418H32.1374C32.6635 20.8418 33.09 20.4153 33.09 19.8891C33.09 19.363 32.6635 18.9365 32.1374 18.9365H16.3508Z" fill="white"/>
<path d="M11.4582 27.7096L7.53882 31.6291L5.78623 29.8764C5.41415 29.5045 4.81102 29.5045 4.43891 29.8764C4.06691 30.2485 4.06691 30.8516 4.43891 31.2237L6.86514 33.65C7.05118 33.8359 7.29495 33.9289 7.53882 33.9289C7.78268 33.9289 8.02645 33.8359 8.2125 33.65L12.8055 29.0569C13.1775 28.6848 13.1775 28.0817 12.8055 27.7096C12.4335 27.3377 11.8303 27.3377 11.4582 27.7096Z" fill="white"/>
<path d="M32.1374 29.7275H16.3508C15.8246 29.7275 15.3982 30.154 15.3982 30.6802C15.3982 31.2064 15.8247 31.6328 16.3508 31.6328H32.1374C32.6635 31.6328 33.09 31.2064 33.09 30.6802C33.09 30.154 32.6635 29.7275 32.1374 29.7275Z" fill="white"/>
<path d="M11.4582 38.5011L7.53882 42.4206L5.78623 40.6678C5.41415 40.296 4.81102 40.296 4.43891 40.6678C4.06691 41.04 4.06691 41.6431 4.43891 42.0152L6.86514 44.4415C7.05118 44.6274 7.29495 44.7204 7.53882 44.7204C7.78268 44.7204 8.02645 44.6274 8.2125 44.4415L12.8055 39.8484C13.1775 39.4763 13.1775 38.8731 12.8055 38.5011C12.4335 38.1292 11.8303 38.1292 11.4582 38.5011Z" fill="white"/>
<path d="M32.1374 40.5186H16.3508C15.8246 40.5186 15.3982 40.945 15.3982 41.4712C15.3982 41.9974 15.8247 42.4238 16.3508 42.4238H32.1374C32.6635 42.4238 33.09 41.9974 33.09 41.4712C33.09 40.945 32.6635 40.5186 32.1374 40.5186Z" fill="white"/>
</svg>
