<svg width="55" height="55" viewBox="0 0 55 55" fill="none" xmlns="http://www.w3.org/2000/svg">
<path d="M22.2521 25.8731C21.8206 25.4416 21.2353 25.1992 20.625 25.1992C20.0147 25.1992 19.4295 25.4416 18.9979 25.8731C18.5664 26.3047 18.324 26.8899 18.324 27.5002C18.324 28.1105 18.5664 28.6958 18.9979 29.1273L25.8729 36.0023C26.0871 36.2147 26.341 36.3827 26.6202 36.4968C26.8994 36.6108 27.1984 36.6686 27.5 36.6669C27.8137 36.6569 28.1221 36.5826 28.4059 36.4486C28.6897 36.3146 28.943 36.1237 29.15 35.8877L45.1917 17.5544C45.5621 17.0945 45.7407 16.5094 45.6902 15.9211C45.6398 15.3327 45.3642 14.7866 44.9209 14.3965C44.4776 14.0064 43.9008 13.8025 43.3109 13.8272C42.7209 13.852 42.1632 14.1035 41.7542 14.5294L27.5 31.0294L22.2521 25.8731Z" fill="#66CC99"/>
<path d="M48.125 25.2085C47.5172 25.2085 46.9343 25.4499 46.5046 25.8797C46.0748 26.3095 45.8334 26.8924 45.8334 27.5002C45.8334 32.3625 43.9018 37.0256 40.4636 40.4638C37.0255 43.902 32.3623 45.8335 27.5 45.8335C23.8794 45.8318 20.3403 44.7582 17.3291 42.7479C14.3178 40.7375 11.9692 37.8806 10.5795 34.5373C9.18969 31.1941 8.82097 27.5141 9.51981 23.9616C10.2186 20.409 11.9537 17.1429 14.5063 14.5752C16.2037 12.855 18.2272 11.4907 20.4583 10.562C22.6894 9.63338 25.0834 9.15906 27.5 9.16683C28.9654 9.176 30.4255 9.34506 31.8542 9.671C32.1532 9.76348 32.4679 9.79374 32.7791 9.75991C33.0902 9.72608 33.3911 9.62889 33.6632 9.47432C33.9353 9.31975 34.1729 9.11108 34.3613 8.86117C34.5497 8.61126 34.6849 8.32542 34.7586 8.02126C34.8323 7.71709 34.8429 7.40106 34.7898 7.09264C34.7367 6.78422 34.6209 6.48995 34.4497 6.22798C34.2785 5.966 34.0554 5.74187 33.7943 5.5694C33.5331 5.39693 33.2394 5.27977 32.9313 5.22516C31.151 4.80634 29.3289 4.59108 27.5 4.5835C22.9725 4.60702 18.5533 5.97115 14.8003 8.50374C11.0472 11.0363 8.12849 14.6239 6.41238 18.8137C4.69626 23.0035 4.25967 27.6077 5.15772 32.0454C6.05577 36.483 8.24821 40.5552 11.4584 43.7481C15.7133 48.0049 21.4813 50.4028 27.5 50.4168C33.5779 50.4168 39.4068 48.0024 43.7046 43.7047C48.0023 39.407 50.4167 33.578 50.4167 27.5002C50.4167 26.8924 50.1752 26.3095 49.7455 25.8797C49.3157 25.4499 48.7328 25.2085 48.125 25.2085Z" fill="#66CC99"/>
</svg>
