<svg width="55" height="55" viewBox="0 0 55 55" fill="none" xmlns="http://www.w3.org/2000/svg">
<path d="M11.3824 18.4199L14.0937 20.4532C14.2425 20.5648 14.4234 20.6251 14.6094 20.6251C14.7953 20.6251 14.9762 20.5648 15.125 20.4532L17.8372 18.4199C18.1684 18.1699 18.4373 17.8467 18.6228 17.4754C18.8082 17.1042 18.9053 16.6951 18.9062 16.2801V15.8264C18.906 15.3709 18.7894 14.9231 18.5676 14.5254C18.3457 14.1277 18.026 13.7933 17.6386 13.5538C17.2512 13.3143 16.8091 13.1777 16.3542 13.1571C15.8992 13.1364 15.4466 13.2322 15.0391 13.4356C14.9057 13.5024 14.7586 13.5372 14.6094 13.5372C14.4602 13.5372 14.3131 13.5024 14.1797 13.4356C13.7722 13.2322 13.3195 13.1364 12.8646 13.1571C12.4096 13.1777 11.9675 13.3143 11.5802 13.5538C11.1928 13.7933 10.873 14.1277 10.6512 14.5254C10.4293 14.9231 10.3127 15.3709 10.3125 15.8264V16.2801C10.3135 16.6952 10.4106 17.1044 10.5962 17.4757C10.7818 17.8469 11.0509 18.1701 11.3824 18.4199ZM12.0312 15.8264C12.0317 15.5732 12.1321 15.3304 12.3105 15.1508C12.489 14.9712 12.7311 14.8693 12.9843 14.8673C13.1336 14.8682 13.2807 14.9038 13.414 14.9713C13.7856 15.1559 14.1949 15.252 14.6098 15.252C15.0247 15.252 15.434 15.1559 15.8056 14.9713C15.9513 14.8984 16.1131 14.864 16.2758 14.8714C16.4385 14.8787 16.5966 14.9276 16.7351 15.0133C16.8736 15.099 16.9879 15.2187 17.0671 15.361C17.1462 15.5033 17.1877 15.6635 17.1875 15.8264V16.2801C17.187 16.4284 17.1522 16.5746 17.0859 16.7073C17.0196 16.84 16.9234 16.9555 16.8051 17.0449L14.6094 18.6915L12.4137 17.0449C12.2953 16.9555 12.1992 16.84 12.1329 16.7073C12.0665 16.5746 12.0317 16.4284 12.0312 16.2801V15.8264Z" fill="#1C1D58"/>
<path d="M23.2031 20.625H30.9375C31.1443 20.625 31.3442 20.5505 31.5004 20.415C31.6567 20.2796 31.7589 20.0924 31.7883 19.8877L32.6477 13.872C32.6651 13.7501 32.6562 13.6258 32.6215 13.5077C32.5868 13.3895 32.527 13.2802 32.4463 13.1871C32.3656 13.094 32.2659 13.0194 32.1538 12.9682C32.0418 12.9171 31.92 12.8906 31.7969 12.8906H30.0781V11.1719C30.0781 10.944 29.9876 10.7254 29.8264 10.5642C29.6653 10.403 29.4467 10.3125 29.2187 10.3125H26.6406C26.4992 10.3125 26.3599 10.3474 26.2352 10.4141C26.1105 10.4808 26.0041 10.5773 25.9256 10.6949L24.4621 12.8906H23.2031C22.9752 12.8906 22.7566 12.9812 22.5955 13.1423C22.4343 13.3035 22.3438 13.5221 22.3438 13.75V19.7656C22.3438 19.9935 22.4343 20.2121 22.5955 20.3733C22.7566 20.5345 22.9752 20.625 23.2031 20.625ZM24.0625 14.6094H24.9219C25.0633 14.6094 25.2026 14.5745 25.3273 14.5078C25.452 14.4411 25.5584 14.3446 25.6369 14.227L27.1004 12.0312H28.3594V13.75C28.3594 13.9779 28.4499 14.1965 28.6111 14.3577C28.7722 14.5188 28.9908 14.6094 29.2187 14.6094H30.806L30.1924 18.9062H24.0625V14.6094Z" fill="#1C1D58"/>
<path d="M37.8624 16.8753L37.3382 19.493C37.3078 19.6448 37.3189 19.802 37.3705 19.948C37.422 20.0941 37.5121 20.2234 37.6311 20.3225C37.7502 20.4215 37.8938 20.4866 38.0467 20.5107C38.1997 20.5349 38.3563 20.5173 38.5001 20.4597L41.2501 19.3589L44.0001 20.4597C44.1016 20.4998 44.2098 20.5205 44.3189 20.5208C44.4464 20.5209 44.5724 20.4927 44.6876 20.4381C44.8029 20.3836 44.9046 20.304 44.9853 20.2053C45.066 20.1066 45.1237 19.9911 45.1543 19.8673C45.1848 19.7435 45.1875 19.6145 45.1619 19.4895L44.6377 16.8719L46.1545 15.3551C46.262 15.2476 46.339 15.1135 46.3778 14.9665C46.4165 14.8195 46.4156 14.6648 46.375 14.5183C46.3345 14.3718 46.2558 14.2386 46.147 14.1325C46.0382 14.0263 45.9032 13.9509 45.7558 13.9139L43.6383 13.3837L41.9805 10.7196C41.898 10.6026 41.7886 10.5071 41.6615 10.4411C41.5344 10.3752 41.3933 10.3408 41.2501 10.3408C41.1069 10.3408 40.9658 10.3752 40.8387 10.4411C40.7115 10.5071 40.6021 10.6026 40.5196 10.7196L38.8619 13.3837L36.7444 13.9139C36.5969 13.9509 36.4619 14.0263 36.3531 14.1325C36.2443 14.2386 36.1657 14.3718 36.1251 14.5183C36.0846 14.6648 36.0836 14.8195 36.1224 14.9665C36.1611 15.1135 36.2381 15.2476 36.3456 15.3551L37.8624 16.8753ZM39.6173 14.9701C39.8339 14.916 40.021 14.7798 40.1389 14.5902L41.2501 12.8044L42.3612 14.5937C42.4792 14.7832 42.6663 14.9194 42.8829 14.9735L43.866 15.2193L43.0977 15.9884C42.998 16.0881 42.9244 16.2108 42.8834 16.3457C42.8423 16.4806 42.8351 16.6235 42.8623 16.7619L43.1656 18.2752L41.5698 17.6358C41.3644 17.5545 41.1357 17.5545 40.9304 17.6358L39.3345 18.2752L39.6379 16.7619C39.6651 16.6235 39.6579 16.4806 39.6168 16.3457C39.5757 16.2108 39.5021 16.0881 39.4024 15.9884L38.6341 15.2193L39.6173 14.9701Z" fill="#1C1D58"/>
<path d="M5.15625 12.0312V18.9062C5.15762 20.2734 5.7013 21.5841 6.66799 22.5508C7.63468 23.5175 8.9454 24.0611 10.3125 24.0625H32.6562V28.0036C32.6563 28.3435 32.7572 28.6757 32.946 28.9583C33.1349 29.2409 33.4033 29.4611 33.7173 29.5912C34.0313 29.7212 34.3769 29.7553 34.7102 29.689C35.0436 29.6227 35.3498 29.459 35.5902 29.2188L40.7464 24.0625H45.5469C46.914 24.0611 48.2247 23.5175 49.1914 22.5508C50.1581 21.5841 50.7018 20.2734 50.7031 18.9062V12.0312C50.7018 10.6641 50.1581 9.35343 49.1914 8.38674C48.2247 7.42005 46.914 6.87637 45.5469 6.875H10.3125C8.9454 6.87637 7.63468 7.42005 6.66799 8.38674C5.7013 9.35343 5.15762 10.6641 5.15625 12.0312ZM6.875 12.0312C6.875 11.1196 7.23716 10.2452 7.88182 9.60057C8.52648 8.95591 9.40082 8.59375 10.3125 8.59375H45.5469C46.4586 8.59375 47.3329 8.95591 47.9776 9.60057C48.6222 10.2452 48.9844 11.1196 48.9844 12.0312V18.9062C48.9844 19.8179 48.6222 20.6923 47.9776 21.3369C47.3329 21.9816 46.4586 22.3438 45.5469 22.3438H40.3906C40.1627 22.3438 39.9442 22.4344 39.783 22.5955L34.375 28.0036V23.2031C34.375 22.9752 34.2845 22.7566 34.1233 22.5955C33.9621 22.4343 33.7435 22.3438 33.5156 22.3438H10.3125C9.40082 22.3438 8.52648 21.9816 7.88182 21.3369C7.23716 20.6923 6.875 19.8179 6.875 18.9062V12.0312Z" fill="#1C1D58"/>
<path d="M30.5713 27.6553C30.4582 27.5757 30.3275 27.5247 30.1904 27.5067C30.0533 27.4888 29.9139 27.5044 29.7841 27.5522L20.7607 30.8333C20.5723 30.902 20.3734 30.9372 20.1729 30.9373H13.3202C11.9552 30.943 10.6395 31.4483 9.62159 32.3578C8.60371 33.2674 7.9541 34.5181 7.79544 35.8739C7.63678 37.2297 7.98006 38.5966 8.76045 39.7166C9.54083 40.8366 10.7043 41.632 12.0311 41.9527V45.9763C12.0311 46.774 12.348 47.5391 12.9121 48.1032C13.4762 48.6672 14.2412 48.9841 15.0389 48.9841C15.8367 48.9841 16.6017 48.6672 17.1658 48.1032C17.7299 47.5391 18.0468 46.774 18.0468 45.9763V45.5466H18.4043C19.2192 45.5457 20.0007 45.2222 20.5778 44.6469C21.155 44.0715 21.4809 43.291 21.4843 42.4761L29.785 45.4942C29.8788 45.5288 29.978 45.5466 30.078 45.5466C30.3059 45.5466 30.5245 45.4561 30.6857 45.2949C30.8468 45.1338 30.9374 44.9152 30.9374 44.6873V40.9215L32.3622 40.2091C32.967 39.9068 33.4756 39.442 33.8311 38.8669C34.1866 38.2918 34.3749 37.629 34.3749 36.9529C34.3749 36.2768 34.1866 35.614 33.8311 35.0389C33.4756 34.4638 32.967 33.999 32.3622 33.6967L30.9374 32.9843V28.3591C30.9374 28.221 30.9041 28.085 30.8404 27.9625C30.7767 27.8399 30.6844 27.7346 30.5713 27.6553ZM9.45301 36.5232C9.45414 35.4979 9.86194 34.5149 10.5869 33.7899C11.3119 33.065 12.2949 32.6572 13.3202 32.656H14.6093V40.3904H13.3202C12.2949 40.3893 11.3119 39.9815 10.5869 39.2565C9.86194 38.5315 9.45414 37.5485 9.45301 36.5232ZM16.328 45.9763C16.328 46.3182 16.1922 46.6461 15.9504 46.8878C15.7087 47.1296 15.3808 47.2654 15.0389 47.2654C14.6971 47.2654 14.3692 47.1296 14.1274 46.8878C13.8857 46.6461 13.7499 46.3182 13.7499 45.9763V42.1091H16.328V45.9763ZM19.7655 42.4666C19.7651 42.8275 19.6215 43.1735 19.3663 43.4287C19.1111 43.6839 18.7651 43.8274 18.4043 43.8279H18.0468V42.1091H19.7655V42.4666ZM29.2186 33.5154V43.4601L21.3442 40.5966C20.9681 40.4602 20.5712 40.3904 20.1711 40.3904H16.328V32.656H20.1711C20.5715 32.656 20.9688 32.5859 21.345 32.4489L29.2186 29.5863V33.5154ZM31.5939 35.2341C31.9132 35.3937 32.1816 35.639 32.3692 35.9426C32.5569 36.2462 32.6563 36.596 32.6563 36.9529C32.6563 37.3098 32.5569 37.6596 32.3692 37.9632C32.1816 38.2667 31.9132 38.5121 31.5939 38.6716L30.9374 38.9999V34.9059L31.5939 35.2341Z" fill="#1C1D58"/>
</svg>
