<svg width="55" height="55" viewBox="0 0 55 55" fill="none" xmlns="http://www.w3.org/2000/svg">
<path d="M52.0385 24.3696C51.7 24.3696 51.3616 24.6235 51.3616 25.0466V38.585C51.3616 38.9235 51.6154 39.2619 52.0385 39.2619C52.4616 39.2619 52.7154 39.0081 52.7154 38.585V25.0466C52.7154 24.6235 52.3769 24.3696 52.0385 24.3696Z" fill="#161744"/>
<path d="M52.0385 19.2925C51.7 19.2925 51.3616 19.5463 51.3616 19.9694V21.6617C51.3616 22.0002 51.6154 22.3386 52.0385 22.3386C52.4616 22.3386 52.7154 22.0848 52.7154 21.6617V19.9694C52.7154 19.5463 52.3769 19.2925 52.0385 19.2925Z" fill="#161744"/>
<path d="M3.80764 7.78474C4.1461 7.78474 4.48456 7.53089 4.48456 7.10781V1.18474C4.48456 0.846274 4.23072 0.507812 3.80764 0.507812C3.38456 0.507812 3.21533 0.930889 3.21533 1.26935V7.19243C3.21533 7.53089 3.46918 7.78474 3.80764 7.78474Z" fill="#161744"/>
<path d="M3.80778 12.0154C4.14624 12.0154 4.48471 11.7616 4.48471 11.3385V10.4924C4.48471 10.1539 4.23086 9.81543 3.80778 9.81543C3.38471 9.81543 3.13086 10.0693 3.13086 10.4924V11.3385C3.21547 11.7616 3.46932 12.0154 3.80778 12.0154Z" fill="#161744"/>
<path d="M6.17694 38.5002C6.17694 38.1618 5.92309 37.8233 5.50002 37.8233H4.48463V36.7233C4.48463 36.3849 4.23078 36.0464 3.80771 36.0464C3.38463 36.0464 3.13078 36.3002 3.13078 36.7233V37.8233H2.1154C1.77694 37.8233 1.43848 38.0772 1.43848 38.5002C1.43848 38.9233 1.69232 39.1772 2.1154 39.1772H3.2154V40.2772C3.2154 40.6156 3.46925 40.9541 3.89232 40.9541C4.3154 40.9541 4.56925 40.7002 4.56925 40.2772V39.1772H5.66925C5.83848 39.1772 6.17694 38.8387 6.17694 38.5002Z" fill="#161744"/>
<path d="M49.5002 0.677246H16.5002C13.3694 0.677246 10.7464 3.21571 10.7464 6.43109V12.3542C10.7464 12.6926 11.0002 13.0311 11.4233 13.0311C11.8464 13.0311 12.1002 12.7772 12.1002 12.3542V6.43109C12.1002 3.97725 14.131 1.94648 16.5848 1.94648H17.431C19.8848 1.94648 21.9156 3.97725 21.9156 6.43109V11.508C21.9156 11.8465 22.1694 12.1849 22.5925 12.1849H25.131C25.4694 12.1849 25.8079 11.9311 25.8079 11.508C25.8079 11.0849 25.554 10.8311 25.131 10.8311H23.1848V6.34648C23.1848 4.56955 22.3387 2.96186 21.0694 1.86186H49.6694C52.2925 1.86186 53.3079 4.14648 53.3079 6.34648V10.8311H28.3464C28.0079 10.8311 27.6694 11.0849 27.6694 11.508C27.6694 11.9311 27.9233 12.1849 28.3464 12.1849H47.2156V48.8234C47.2156 51.2773 45.1848 53.308 42.731 53.308C40.2771 53.308 38.2464 51.2773 38.2464 48.8234V43.7465C38.2464 43.408 37.9925 43.0696 37.5694 43.0696H12.1002V39.4311C12.1002 39.0926 11.8464 38.7542 11.4233 38.7542C11.0002 38.7542 10.7464 39.008 10.7464 39.4311V43.0696H6.34636C6.0079 43.0696 5.66943 43.3234 5.66943 43.7465V48.8234C5.66943 51.9542 8.2079 54.5773 11.4233 54.5773H42.731C45.8617 54.5773 48.4848 52.0388 48.4848 48.8234V12.1003H53.8156C54.154 12.1003 54.4925 11.8465 54.4925 11.4234V6.34648C54.4079 2.87725 52.4617 0.677246 49.5002 0.677246ZM11.4233 53.1388C8.96943 53.1388 6.93866 51.108 6.93866 48.6542V44.1696H36.9771V48.6542C36.9771 50.4311 37.8233 52.0388 39.0925 53.1388H11.4233Z" fill="#161744"/>
<path d="M25.8078 29.8695H44.4232C44.7616 29.8695 45.1001 29.6156 45.1001 29.1925C45.1001 28.7695 44.8462 28.5156 44.4232 28.5156H25.8078C25.4693 28.5156 25.1309 28.7695 25.1309 29.1925C25.1309 29.6156 25.4693 29.8695 25.8078 29.8695Z" fill="#161744"/>
<path d="M25.2156 24.9616C25.2156 25.3001 25.4694 25.6385 25.8925 25.6385H44.5079C44.8463 25.6385 45.1848 25.3847 45.1848 24.9616C45.1848 24.5385 44.931 24.2847 44.5079 24.2847H25.8925C25.4694 24.3693 25.2156 24.6231 25.2156 24.9616Z" fill="#161744"/>
<path d="M34.2692 21.3231H44.4231C44.7615 21.3231 45.1 21.0692 45.1 20.6462C45.1 20.2231 44.8461 19.9692 44.4231 19.9692H34.2692C33.9307 19.9692 33.5923 20.2231 33.5923 20.6462C33.5923 21.0692 33.9307 21.3231 34.2692 21.3231Z" fill="#161744"/>
<path d="M34.2692 17.0926H44.4231C44.7615 17.0926 45.1 16.8388 45.1 16.4157C45.1 15.9926 44.8461 15.7388 44.4231 15.7388H34.2692C33.9307 15.7388 33.5923 15.9926 33.5923 16.4157C33.5923 16.8388 33.9307 17.0926 34.2692 17.0926Z" fill="#161744"/>
<path d="M25.8078 34.1004H44.4232C44.7616 34.1004 45.1001 33.8466 45.1001 33.4235C45.1001 33.0004 44.8462 32.7466 44.4232 32.7466H25.8078C25.4693 32.7466 25.1309 33.0004 25.1309 33.4235C25.1309 33.8466 25.4693 34.1004 25.8078 34.1004Z" fill="#161744"/>
<path d="M25.8078 38.3309H44.4232C44.7616 38.3309 45.1001 38.0771 45.1001 37.654C45.1001 37.2309 44.8462 36.9771 44.4232 36.9771H25.8078C25.4693 36.9771 25.1309 37.2309 25.1309 37.654C25.1309 38.0771 25.4693 38.3309 25.8078 38.3309Z" fill="#161744"/>
<path d="M11.4232 36.6389C14.3847 36.6389 17.0924 35.4543 19.0385 33.5082C20.9847 31.562 22.1693 28.8543 22.1693 25.8928C22.1693 19.9697 17.3462 15.062 11.3385 15.062C5.33085 15.062 0.677002 19.8851 0.677002 25.8082C0.677002 31.7312 5.50008 36.6389 11.4232 36.6389ZM18.6155 32.0697L13.0309 26.4851H20.9847C20.7309 28.6005 19.8847 30.5466 18.6155 32.0697ZM20.9001 25.2159H12.1001V16.3312C16.8385 16.6697 20.5616 20.3928 20.9001 25.2159ZM10.8309 16.3312V25.8082C10.8309 25.8928 10.8308 25.9774 10.9155 26.062C10.9155 26.1466 11.0001 26.2312 11.0847 26.2312L17.7693 32.9159C16.077 34.3543 13.877 35.2851 11.5078 35.2851C6.26162 35.2851 1.94623 31.0543 1.94623 25.7236C1.94623 20.8159 5.83854 16.6697 10.8309 16.3312Z" fill="#161744"/>
<path d="M26.6539 12.0157C26.8231 12.0157 26.9923 11.931 27.077 11.8464C27.1616 11.7618 27.2462 11.5926 27.2462 11.4233C27.2462 11.2541 27.1616 11.0849 27.077 11.0003C26.9923 10.9157 26.9923 10.9157 26.8231 10.831C26.6539 10.7464 26.4846 10.7464 26.3154 10.831C26.2308 10.831 26.1462 10.9157 26.1462 11.0003C26.0616 11.0849 26.0616 11.1695 25.9769 11.2541C25.9769 11.3387 25.8923 11.4233 25.8923 11.508C25.8923 11.5926 25.8923 11.6772 25.8923 11.7618C25.8923 11.8464 25.9769 11.931 26.0616 11.931C26.3154 12.0157 26.4846 12.0157 26.6539 12.0157Z" fill="#161744"/>
</svg>
