<svg width="41" height="55" viewBox="0 0 41 55" fill="none" xmlns="http://www.w3.org/2000/svg">
<path d="M6.75 33.8462H13.0962V27.5H6.75V33.8462ZM8.8655 29.6154H10.9809V31.7308H8.8655V29.6154Z" fill="#161744"/>
<path d="M6.75 44.4233H13.0962V38.0771H6.75V44.4233ZM8.8655 40.1925H10.9809V42.3079H8.8655V40.1925Z" fill="#161744"/>
<path d="M6.75 23.269H13.0962V16.9229H6.75V23.269ZM8.8655 19.0382H10.9809V21.1536H8.8655V19.0382Z" fill="#161744"/>
<path d="M36.3654 2.11538H34.25V0H32.1346V2.11538H25.7884V0H23.673V2.11538H17.3269V0H15.2115V2.11538H8.86535V0H6.74996V2.11538H4.63458C2.3076 2.11538 0.403809 4.01918 0.403809 6.34615V50.7692C0.403809 53.0961 2.3076 55 4.63458 55H36.3654C38.6922 55 40.5961 53.0961 40.5961 50.7692V6.34615C40.5961 4.01918 38.6923 2.11538 36.3654 2.11538ZM38.4808 50.7692C38.4808 52.0385 37.6347 52.8846 36.3655 52.8846H4.63469C3.57705 52.8846 2.5193 52.0385 2.5193 50.7692V6.34615C2.5193 5.07692 3.36546 4.23077 4.63469 4.23077H6.75007V6.34615H8.86546V4.23077H15.2116V6.34615H17.327V4.23077H23.6732V6.34615H25.7885V4.23077H32.1347V6.34615H34.2501V4.23077H36.3655C37.4231 4.23077 38.4808 5.07692 38.4808 6.34615V50.7692Z" fill="#161744"/>
<path d="M34.25 19.0386H17.3269V21.154H34.25V19.0386Z" fill="#161744"/>
<path d="M34.25 29.6152H17.3269V31.7306H34.25V29.6152Z" fill="#161744"/>
<path d="M34.25 40.1924H17.3269V42.3078H34.25V40.1924Z" fill="#161744"/>
</svg>
