<svg width="106" height="101" viewBox="0 0 106 101" fill="none" xmlns="http://www.w3.org/2000/svg">
<g clip-path="url(#clip0)" filter="url(#filter0_d)">
<path d="M85.4972 66.7808C85.4972 71.7866 81.4382 75.8469 76.4324 75.8469H9.56332C4.55755 75.8469 0.498535 71.7866 0.498535 66.7808V18.2191C0.498535 13.2133 4.55755 9.1543 9.56332 9.1543H76.4324C81.4382 9.1543 85.4985 13.2133 85.4985 18.2191L85.4972 66.7808ZM80.2665 18.2191C80.2665 16.102 78.5509 14.385 76.4324 14.385H9.56332C7.4462 14.385 5.72922 16.102 5.72922 18.2191V66.7808C5.72922 68.8979 7.4462 70.6162 9.56332 70.6162H76.4324C78.5496 70.6162 80.2678 68.8992 80.2678 66.7808L80.2665 18.2191Z" fill="white"/>
<path d="M41.8981 50.2551C41.6052 50.2551 41.3135 50.1557 41.0716 49.9609L19.1485 32.1111C18.5888 31.6548 18.5051 30.8309 18.9602 30.2713C19.4153 29.7142 20.2404 29.6266 20.8001 30.0829L41.9059 47.2671L62.4991 30.8676C63.068 30.4164 63.8892 30.5119 64.3364 31.0755C64.7863 31.6417 64.6908 32.4642 64.1285 32.9128L42.7128 49.9687C42.4748 50.1596 42.1871 50.2551 41.8981 50.2551Z" fill="white"/>
<path d="M22.9369 55.8143C22.6414 55.8143 22.3458 55.7149 22.1 55.5122C21.5455 55.0493 21.471 54.2255 21.9339 53.671L22.5067 52.9884C22.9683 52.4327 23.7908 52.3581 24.3479 52.8223C24.9023 53.2853 24.9769 54.1078 24.514 54.6622L23.9412 55.3462C23.6836 55.6561 23.3122 55.8143 22.9369 55.8143Z" fill="white"/>
<path d="M26.2765 51.8112C25.9679 51.8112 25.6567 51.704 25.4082 51.4817C24.8682 51.0018 24.8198 50.1766 25.2984 49.6352L32.654 41.3498C33.1353 40.8085 33.9604 40.7614 34.5005 41.24C35.0405 41.7199 35.0889 42.5464 34.6103 43.0864L27.2547 51.3718C26.9957 51.6621 26.6361 51.8112 26.2765 51.8112Z" fill="white"/>
<path d="M58.9737 54.2352C58.601 54.2352 58.2284 54.0743 57.9681 53.767L50.0999 44.3583C49.637 43.8039 49.7102 42.98 50.266 42.5158C50.823 42.0529 51.6455 42.1274 52.1072 42.6806L59.9741 52.0893C60.437 52.6437 60.3651 53.4702 59.8106 53.9331C59.5661 54.1345 59.2667 54.2352 58.9737 54.2352Z" fill="white"/>
</g>
<defs>
<filter id="filter0_d" x="0.498535" y="0" width="105" height="110" filterUnits="userSpaceOnUse" color-interpolation-filters="sRGB">
<feFlood flood-opacity="0" result="BackgroundImageFix"/>
<feColorMatrix in="SourceAlpha" type="matrix" values="0 0 0 0 0 0 0 0 0 0 0 0 0 0 0 0 0 0 127 0"/>
<feOffset dx="10" dy="15"/>
<feGaussianBlur stdDeviation="5"/>
<feColorMatrix type="matrix" values="0 0 0 0 0 0 0 0 0 0 0 0 0 0 0 0 0 0 0.25 0"/>
<feBlend mode="normal" in2="BackgroundImageFix" result="effect1_dropShadow"/>
<feBlend mode="normal" in="SourceGraphic" in2="effect1_dropShadow" result="shape"/>
</filter>
<clipPath id="clip0">
<rect width="85" height="85" fill="white" transform="translate(0.498535)"/>
</clipPath>
</defs>
</svg>
