<svg width="24" height="25" viewBox="0 0 24 25" fill="none" xmlns="http://www.w3.org/2000/svg">
<path fill-rule="evenodd" clip-rule="evenodd" d="M6.63333 0.978516H17.3667C20.74 0.978516 23.5 3.73852 23.5 7.11185V17.889C23.5 21.2623 20.74 24.0223 17.3667 24.0223H6.63333C3.26 24.0223 0.5 21.2623 0.5 17.889V7.11185C0.5 3.73852 3.26 0.978516 6.63333 0.978516ZM18.9219 4.43947C19.4914 4.43947 19.9733 4.92137 19.9733 5.4909C19.9733 6.08232 19.4914 6.56423 18.9219 6.56423C18.3305 6.56423 17.8705 6.08232 17.8705 5.4909C17.8705 4.92137 18.3305 4.43947 18.9219 4.43947ZM12 5.92899C13.8181 5.92899 15.439 6.67375 16.6438 7.85661C17.8267 9.03947 18.5714 10.6823 18.5714 12.5004C18.5714 14.3185 17.8267 15.9395 16.6438 17.1442C15.439 18.3271 13.8181 19.0718 12 19.0718C10.1819 19.0718 8.53905 18.3271 7.35619 17.1442C6.17333 15.9395 5.42857 14.3185 5.42857 12.5004C5.42857 10.6823 6.17333 9.03947 7.35619 7.85661C8.53905 6.67375 10.1819 5.92899 12 5.92899ZM14.6286 9.87185C13.9495 9.1928 13.0295 8.77661 12 8.77661C10.9705 8.77661 10.0286 9.1928 9.37143 9.87185C8.69238 10.529 8.27619 11.4709 8.27619 12.5004C8.27619 13.5299 8.69238 14.4499 9.37143 15.129C10.0286 15.808 10.9705 16.2242 12 16.2242C13.0295 16.2242 13.9495 15.808 14.6286 15.129C15.3076 14.4499 15.7238 13.5299 15.7238 12.5004C15.7238 11.4709 15.3076 10.529 14.6286 9.87185Z" fill="#292929"/>
</svg>
