<svg width="56" height="55" viewBox="0 0 56 55" fill="none" xmlns="http://www.w3.org/2000/svg">
<path d="M55.2274 43.8405L54.9537 43.0156C54.3053 41.0885 52.1801 39.0786 50.2277 38.5491L43.0019 36.5751C41.0424 36.042 38.2472 36.7589 36.8135 38.1924L34.1983 40.8076C24.6943 38.2395 17.2416 30.7866 14.677 21.2844L17.2922 18.6691C18.7259 17.2354 19.4426 14.4439 18.9095 12.4844L16.9392 5.25497C16.4061 3.29902 14.3925 1.17386 12.469 0.532629L11.6442 0.255299C9.71706 -0.385928 6.96865 0.26256 5.53508 1.69613L1.62318 5.61161C0.924317 6.30678 0.47766 8.29512 0.47766 8.30238C0.340839 20.7223 5.21084 32.6883 13.9962 41.4738C22.76 50.2376 34.6812 55.1005 47.0651 54.9961C47.1298 54.9961 49.1758 54.5565 49.8747 53.8613L53.7866 49.9494C55.2201 48.5159 55.8685 45.7676 55.2274 43.8405Z" fill="white"/>
</svg>
