<svg width="31" height="18" viewBox="0 0 31 18" fill="none" xmlns="http://www.w3.org/2000/svg">
<g clip-path="url(#clip0)">
<path fill-rule="evenodd" clip-rule="evenodd" d="M30.204 1.20001C30.4435 0.51131 30.204 -0.0276737 29.2158 -0.0276737H25.8921C25.0537 -0.0276737 24.6644 0.421479 24.4249 0.930519C24.4249 0.930519 22.7181 5.03278 20.3526 7.7277C19.574 8.47629 19.2147 8.74578 18.7955 8.74578C18.5859 8.74578 18.2864 8.47629 18.2864 7.78759V1.17007C18.2864 0.331649 18.017 -0.0576172 17.3283 -0.0576172H12.0881C11.5791 -0.0576172 11.2497 0.331649 11.2497 0.720914C11.2497 1.52939 12.4475 1.70905 12.5972 3.98476V8.86555C12.5972 9.94352 12.3876 10.1232 11.9684 10.1232C10.8305 10.1232 8.10565 5.96103 6.45876 1.22995C6.12938 0.301705 5.82995 -0.0576172 4.99153 -0.0576172H1.63785C0.649718 -0.0576172 0.5 0.391536 0.5 0.870632C0.5 1.73899 1.63785 6.14069 5.74012 11.9198C8.49492 15.9023 12.3876 18.0283 15.891 18.0283C18.017 18.0283 18.2864 17.5492 18.2864 16.7407V13.7463C18.2864 12.7582 18.4661 12.6085 19.1548 12.6085C19.6339 12.6085 20.5023 12.878 22.4785 14.7644C24.7243 17.0102 25.1136 18.0582 26.3712 18.0582H29.6949C30.6531 18.0582 31.1023 17.5791 30.8627 16.6509C30.5633 15.6927 29.4554 14.3452 28.048 12.7283C27.2695 11.83 26.1017 10.8418 25.7723 10.3627C25.2633 9.70397 25.413 9.46442 25.7723 8.86555C25.7424 8.86555 29.7848 3.14634 30.204 1.20001Z" fill="#292929"/>
</g>
<defs>
<clipPath id="clip0">
<rect width="30.4226" height="18" fill="white" transform="translate(0.5)"/>
</clipPath>
</defs>
</svg>
