<svg width="30" height="22" viewBox="0 0 30 22" fill="none" xmlns="http://www.w3.org/2000/svg">
<g clip-path="url(#clip0)">
<path fill-rule="evenodd" clip-rule="evenodd" d="M0 1C0 0.447715 0.447715 0 1 0H28.5C29.0523 0 29.5 0.447715 29.5 1C29.5 1.55228 29.0523 2 28.5 2H1C0.447715 2 0 1.55228 0 1Z" fill="white"/>
<path fill-rule="evenodd" clip-rule="evenodd" d="M0 11C0 10.4477 0.447715 10 1 10H28.5C29.0523 10 29.5 10.4477 29.5 11C29.5 11.5523 29.0523 12 28.5 12H1C0.447715 12 0 11.5523 0 11Z" fill="white"/>
<path fill-rule="evenodd" clip-rule="evenodd" d="M0 21C0 20.4477 0.447715 20 1 20H28.5C29.0523 20 29.5 20.4477 29.5 21C29.5 21.5523 29.0523 22 28.5 22H1C0.447715 22 0 21.5523 0 21Z" fill="white"/>
</g>
<defs>
<clipPath id="clip0">
<rect width="29.5" height="22" fill="white"/>
</clipPath>
</defs>
</svg>
